# xmcd CD database file
#
# Track frame offsets:
#	182
#	14662
#	32822
#	47892
#	57307
#	75367
#	86647
#	106522
#	119817
#	132187
#	145645
#	159022
#	168812
#	179877
#	197000
#	206480
#	221060
#	241912
#	260505
#	271955
#	289682
#	303282
#	316172
#	328867
#	342987
#
# Disc length: 4683 seconds
#
# Revision: 9
# Processed by: cddbd v1.5.2PL0 Copyright (c) Steve Scherf et al.
# Submitted via: CDex 1.51
#
DISCID=68124919
DTITLE=Dwight Yoakam - dwightyoakamacoustic.net
DYEAR=2000
DGENRE=Country
TTITLE0=Bury Me (Acoustic LP Version)
TTITLE1=1000 Miles (Acoustic LP Version)
TTITLE2=Little Sister (Acoustic LP Version)
TTITLE3=Please, Please Baby (Acoustic LP Version)
TTITLE4=It Won't Hurt (Acoustic LP Version)
TTITLE5=I'll Be Gone (Acoustic LP Version)
TTITLE6=Johnson's Love (Acoustic LP Version)
TTITLE7=Little Ways (Acoustic LP Version)
TTITLE8=This Drinkin' Will Kill Me (Acoustic LP Version)
TTITLE9=Nothing's Changed Here (Acoustic LP Version)
TTITLE10=Throughout All Time (Acoustic LP Version)
TTITLE11=Sad, Sad Music (Acoustic LP Version)
TTITLE12=It Only Hurts When I Cry (Acoustic LP Version)
TTITLE13=Buenos Noches From A Lonely Room (She Wore Red Dresses) (Acoustic LP Version)
TTITLE14=The Distance Between You And Me (Acoustic LP Version)
TTITLE15=A Thousand Miles From Nowhere (Acoustic LP Version)
TTITLE16=Two Doors Down (Acoustic LP Version)
TTITLE17=Readin', Rightin', Rt. 23 (Acoustic LP Version)
TTITLE18=If There Was A Way (Acoustic LP Version)
TTITLE19=Fast As You (Acoustic LP Version)
TTITLE20=Home For Sale (Acoustic LP Version)
TTITLE21=A Long Way Home (Acoustic LP Version)
TTITLE22=Lonesome Roads (Acoustic LP Version)
TTITLE23=Things Change (Acoustic LP Version)
TTITLE24=Guitars, Cadillacs (Acoustic LP Version)
EXTD=YEAR: 2000
EXTT0=
EXTT1=
EXTT2=
EXTT3=
EXTT4=
EXTT5=
EXTT6=
EXTT7=
EXTT8=
EXTT9=
EXTT10=
EXTT11=
EXTT12=
EXTT13=
EXTT14=
EXTT15=
EXTT16=
EXTT17=
EXTT18=
EXTT19=
EXTT20=
EXTT21=
EXTT22=
EXTT23=
EXTT24=
PLAYORDER=
